<?xml version="1.0" encoding="UTF-8" standalone="no"?>
<!-- Generator: Adobe Illustrator 19.0.0, SVG Export Plug-In . SVG Version: 6.00 Build 0)  -->

<svg
   xmlns:dc="http://purl.org/dc/elements/1.1/"
   xmlns:cc="http://creativecommons.org/ns#"
   xmlns:rdf="http://www.w3.org/1999/02/22-rdf-syntax-ns#"
   xmlns:svg="http://www.w3.org/2000/svg"
   xmlns="http://www.w3.org/2000/svg"
   xmlns:sodipodi="http://sodipodi.sourceforge.net/DTD/sodipodi-0.dtd"
   xmlns:inkscape="http://www.inkscape.org/namespaces/inkscape"
   version="1.1"
   id="Layer_1"
   x="0px"
   y="0px"
   viewBox="0 0 512 512"
   style="enable-background:new 0 0 512 512;"
   xml:space="preserve"
   inkscape:version="0.91 r13725"
   sodipodi:docname="round_icon.svg"><metadata
     id="metadata4177"><rdf:RDF><cc:Work
         rdf:about=""><dc:format>image/svg+xml</dc:format><dc:type
           rdf:resource="http://purl.org/dc/dcmitype/StillImage" /><dc:title></dc:title></cc:Work></rdf:RDF></metadata><defs
     id="defs4175" /><sodipodi:namedview
     pagecolor="#ffffff"
     bordercolor="#666666"
     borderopacity="1"
     objecttolerance="10"
     gridtolerance="10"
     guidetolerance="10"
     inkscape:pageopacity="0"
     inkscape:pageshadow="2"
     inkscape:window-width="1920"
     inkscape:window-height="1019"
     id="namedview4173"
     showgrid="false"
     inkscape:zoom="0.57176212"
     inkscape:cx="-99.931706"
     inkscape:cy="108.45588"
     inkscape:window-x="-9"
     inkscape:window-y="-9"
     inkscape:window-maximized="1"
     inkscape:current-layer="Layer_1" /><g
     id="g4137"
     transform="matrix(-0.64785245,0,0,0.64785245,419.43894,74.284841)"><g
       id="g4139"><path
         d="m 501.333,192 -32.54,0 c -2.208,-24.352 -11.85,-46.577 -26.686,-64.362 l 23.039,-23.023 c 4.167,-4.156 4.167,-10.917 0,-15.083 -4.167,-4.167 -10.917,-4.167 -15.083,0 l -23.04,23.025 C 409.237,97.724 387.015,88.083 362.668,85.875 l 0,-32.54 c 0,-5.896 -4.771,-10.667 -10.667,-10.667 -5.896,0 -10.667,4.771 -10.667,10.667 l 0,32.995 c -24.061,2.25 -46.238,11.62 -64.027,26.556 L 253.939,89.533 c -4.167,-4.167 -10.917,-4.167 -15.083,0 -4.167,4.167 -4.167,10.927 0,15.083 l 23.388,23.371 c -11.229,13.559 -19.168,29.799 -23.424,47.616 -11.708,-2.973 -23.751,-4.935 -36.151,-4.935 -76.865,0 -140.452,58.292 -148.182,133.988 C 22.674,317.068 0,347.852 0,384 c 0,47.052 38.271,85.333 85.333,85.333 l 277.333,0 c 58.813,0 106.667,-47.854 106.667,-106.667 0,-30.788 -13.311,-58.349 -34.246,-77.837 19.349,-19.418 31.145,-44.581 33.642,-71.496 l 32.604,0 c 5.896,0 10.667,-4.771 10.667,-10.667 C 512,196.771 507.229,192 501.333,192 Z M 448,362.667 C 448,409.719 409.729,448 362.667,448 l -277.334,0 c -35.292,0 -64,-28.708 -64,-64 0,-35.292 28.708,-64 64,-64 5.896,0 10.667,-4.771 10.667,-10.667 0,-5.896 -4.771,-10.667 -10.667,-10.667 -3.02,0 -5.879,0.585 -8.819,0.892 C 86.319,238.258 139.288,192 202.667,192 c 49.551,0 94.474,29.395 115.391,73.837 -5.147,2.374 -10.152,5.087 -14.911,8.288 -4.875,3.292 -6.188,9.917 -2.896,14.813 3.313,4.885 9.938,6.146 14.813,2.896 14.083,-9.49 30.563,-14.5 47.604,-14.5 C 409.729,277.333 448,315.615 448,362.667 Z M 417.749,271.789 C 401.617,261.973 382.889,256 362.667,256 c -8.275,0 -16.366,1.224 -24.289,3.074 -15.863,-35.224 -44.531,-62.358 -79.29,-76.742 9.505,-43.57 47.909,-75.665 92.913,-75.665 52.938,0 96,43.063 96,96 -10e-4,26.174 -10.996,50.922 -30.252,69.122 z"
         id="path4141"
         inkscape:connector-curvature="0" /></g></g><g
     id="g4143" /><g
     id="g4145" /><g
     id="g4147" /><g
     id="g4149" /><g
     id="g4151" /><g
     id="g4153" /><g
     id="g4155" /><g
     id="g4157" /><g
     id="g4159" /><g
     id="g4161" /><g
     id="g4163" /><g
     id="g4165" /><g
     id="g4167" /><g
     id="g4169" /><g
     id="g4171" /><circle
     style="fill:none;fill-opacity:1;stroke:#000000;stroke-width:13.747;stroke-miterlimit:4;stroke-dasharray:none;stroke-opacity:1"
     id="path4185"
     cx="256"
     cy="256"
     r="249.12639" /></svg>